<svg width="24" height="24" viewBox="0 0 24 24" fill="none" xmlns="http://www.w3.org/2000/svg">
<path d="M2.66667 21.3333H21.3333V9.1L14.9 2.66667H2.66667V21.3333ZM2.66667 24C1.93333 24 1.30533 23.7391 0.782667 23.2173C0.260889 22.6947 0 22.0667 0 21.3333V2.66667C0 1.93333 0.260889 1.30533 0.782667 0.782667C1.30533 0.260889 1.93333 0 2.66667 0H16L24 8V21.3333C24 22.0667 23.7391 22.6947 23.2173 23.2173C22.6947 23.7391 22.0667 24 21.3333 24H2.66667ZM5.33333 18.6667H18.6667V16H5.33333V18.6667ZM5.33333 13.3333H18.6667V10.6667H5.33333V13.3333ZM5.33333 8H14.6667V5.33333H5.33333V8Z" fill="white"/>
</svg>
