<svg width="24" height="25" viewBox="0 0 24 25" fill="none" xmlns="http://www.w3.org/2000/svg">
<path d="M13.2 16.8C13.54 16.8 13.8252 16.6848 14.0556 16.4544C14.2852 16.2248 14.4 15.94 14.4 15.6C14.4 15.26 14.2852 14.9748 14.0556 14.7444C13.8252 14.5148 13.54 14.4 13.2 14.4H6C5.66 14.4 5.3748 14.5148 5.1444 14.7444C4.9148 14.9748 4.8 15.26 4.8 15.6C4.8 15.94 4.9148 16.2248 5.1444 16.4544C5.3748 16.6848 5.66 16.8 6 16.8H13.2ZM18 13.2C18.34 13.2 18.6248 13.0848 18.8544 12.8544C19.0848 12.6248 19.2 12.34 19.2 12C19.2 11.66 19.0848 11.3748 18.8544 11.1444C18.6248 10.9148 18.34 10.8 18 10.8H6C5.66 10.8 5.3748 10.9148 5.1444 11.1444C4.9148 11.3748 4.8 11.66 4.8 12C4.8 12.34 4.9148 12.6248 5.1444 12.8544C5.3748 13.0848 5.66 13.2 6 13.2H18ZM20.4 7.2C19.4 7.2 18.55 6.85 17.85 6.15C17.15 5.45 16.8 4.6 16.8 3.6C16.8 2.6 17.15 1.75 17.85 1.05C18.55 0.35 19.4 0 20.4 0C21.4 0 22.25 0.35 22.95 1.05C23.65 1.75 24 2.6 24 3.6C24 4.6 23.65 5.45 22.95 6.15C22.25 6.85 21.4 7.2 20.4 7.2ZM4.8 21.6L2.04 24.36C1.66 24.74 1.2248 24.8248 0.7344 24.6144C0.2448 24.4048 0 24.03 0 23.49V4.8C0 4.14 0.2352 3.5748 0.7056 3.1044C1.1752 2.6348 1.74 2.4 2.4 2.4H14.52C14.44 2.8 14.4 3.2 14.4 3.6C14.4 4 14.44 4.4 14.52 4.8C14.62 5.26 14.76 5.69 14.94 6.09C15.12 6.49 15.34 6.86 15.6 7.2H6C5.66 7.2 5.3748 7.3148 5.1444 7.5444C4.9148 7.7748 4.8 8.06 4.8 8.4C4.8 8.74 4.9148 9.0252 5.1444 9.2556C5.3748 9.4852 5.66 9.6 6 9.6H20.4C21.04 9.6 21.67 9.5 22.29 9.3C22.91 9.1 23.48 8.8 24 8.4V19.2C24 19.86 23.7652 20.4252 23.2956 20.8956C22.8252 21.3652 22.26 21.6 21.6 21.6H4.8Z" fill="white"/>
</svg>
