<svg width="174" height="24" viewBox="0 0 174 24" fill="none" xmlns="http://www.w3.org/2000/svg">
<path d="M6.112 23.652C4.88 23.652 3.888 23.316 3.136 22.644C2.384 21.972 2.008 20.98 2.008 19.668C2.008 19.14 2.048 18.652 2.128 18.204C2.208 17.756 2.288 17.308 2.368 16.86C2.464 16.396 2.512 15.884 2.512 15.324C2.512 14.78 2.336 14.3 1.984 13.884C1.648 13.452 1.032 13.18 0.136 13.068V10.596C1.032 10.484 1.648 10.228 1.984 9.828C2.336 9.412 2.512 8.916 2.512 8.34C2.512 7.796 2.464 7.3 2.368 6.852C2.288 6.388 2.208 5.932 2.128 5.484C2.048 5.036 2.008 4.54 2.008 3.996C2.008 2.7 2.384 1.716 3.136 1.044C3.888 0.371999 4.88 0.0359988 6.112 0.0359988H7.624V2.58H6.688C5.536 2.58 4.96 3.148 4.96 4.284C4.96 4.908 5.032 5.54 5.176 6.18C5.336 6.804 5.416 7.564 5.416 8.46C5.416 9.308 5.208 10.036 4.792 10.644C4.376 11.236 3.712 11.628 2.8 11.82V11.868C3.712 12.06 4.376 12.46 4.792 13.068C5.208 13.66 5.416 14.38 5.416 15.228C5.416 16.124 5.336 16.892 5.176 17.532C5.032 18.156 4.96 18.78 4.96 19.404C4.96 20.54 5.536 21.108 6.688 21.108H7.624V23.652H6.112ZM26.4447 19.788C24.7487 19.788 23.2927 19.428 22.0767 18.708C20.8607 17.972 19.9247 16.956 19.2687 15.66C18.6127 14.348 18.2847 12.836 18.2847 11.124C18.2847 9.412 18.6127 7.9 19.2687 6.588C19.9247 5.276 20.8607 4.252 22.0767 3.516C23.2927 2.78 24.7487 2.412 26.4447 2.412C28.4607 2.412 30.1087 2.916 31.3887 3.924C32.6847 4.916 33.4927 6.316 33.8127 8.124H30.4287C30.2207 7.212 29.7727 6.5 29.0847 5.988C28.4127 5.46 27.5167 5.196 26.3967 5.196C24.8447 5.196 23.6287 5.724 22.7487 6.78C21.8687 7.836 21.4287 9.284 21.4287 11.124C21.4287 12.964 21.8687 14.412 22.7487 15.468C23.6287 16.508 24.8447 17.028 26.3967 17.028C27.5167 17.028 28.4127 16.788 29.0847 16.308C29.7727 15.812 30.2207 15.132 30.4287 14.268H33.8127C33.4927 15.996 32.6847 17.348 31.3887 18.324C30.1087 19.3 28.4607 19.788 26.4447 19.788ZM43.372 19.788C42.22 19.788 41.18 19.524 40.252 18.996C39.34 18.468 38.612 17.74 38.068 16.812C37.54 15.868 37.276 14.78 37.276 13.548C37.276 12.316 37.548 11.236 38.092 10.308C38.636 9.364 39.364 8.628 40.276 8.1C41.204 7.572 42.244 7.308 43.396 7.308C44.532 7.308 45.556 7.572 46.468 8.1C47.396 8.628 48.124 9.364 48.652 10.308C49.196 11.236 49.468 12.316 49.468 13.548C49.468 14.78 49.196 15.868 48.652 16.812C48.124 17.74 47.396 18.468 46.468 18.996C45.54 19.524 44.508 19.788 43.372 19.788ZM43.372 17.124C44.172 17.124 44.868 16.828 45.46 16.236C46.052 15.628 46.348 14.732 46.348 13.548C46.348 12.364 46.052 11.476 45.46 10.884C44.868 10.276 44.18 9.972 43.396 9.972C42.58 9.972 41.876 10.276 41.284 10.884C40.708 11.476 40.42 12.364 40.42 13.548C40.42 14.732 40.708 15.628 41.284 16.236C41.876 16.828 42.572 17.124 43.372 17.124ZM58.8867 19.788C57.7667 19.788 56.7667 19.516 55.8867 18.972C55.0067 18.428 54.3107 17.684 53.7987 16.74C53.2867 15.796 53.0307 14.724 53.0307 13.524C53.0307 12.324 53.2867 11.26 53.7987 10.332C54.3107 9.388 55.0067 8.652 55.8867 8.124C56.7667 7.58 57.7667 7.308 58.8867 7.308C59.7827 7.308 60.5667 7.476 61.2387 7.812C61.9107 8.148 62.4547 8.62 62.8707 9.228V2.22H65.9427V19.5H63.2067L62.8707 17.796C62.4867 18.324 61.9747 18.788 61.3347 19.188C60.7107 19.588 59.8947 19.788 58.8867 19.788ZM59.5347 17.1C60.5267 17.1 61.3347 16.772 61.9587 16.116C62.5987 15.444 62.9187 14.588 62.9187 13.548C62.9187 12.508 62.5987 11.66 61.9587 11.004C61.3347 10.332 60.5267 9.996 59.5347 9.996C58.5587 9.996 57.7507 10.324 57.1107 10.98C56.4707 11.636 56.1507 12.484 56.1507 13.524C56.1507 14.564 56.4707 15.42 57.1107 16.092C57.7507 16.764 58.5587 17.1 59.5347 17.1ZM76.0549 19.788C74.8549 19.788 73.7909 19.532 72.8629 19.02C71.9349 18.508 71.2069 17.788 70.6789 16.86C70.1509 15.932 69.8869 14.86 69.8869 13.644C69.8869 12.412 70.1429 11.316 70.6549 10.356C71.1829 9.396 71.9029 8.652 72.8149 8.124C73.7429 7.58 74.8309 7.308 76.0789 7.308C77.2469 7.308 78.2789 7.564 79.1749 8.076C80.0709 8.588 80.7669 9.292 81.2629 10.188C81.7749 11.068 82.0309 12.052 82.0309 13.14C82.0309 13.316 82.0229 13.5 82.0069 13.692C82.0069 13.884 81.9989 14.084 81.9829 14.292H72.9349C72.9989 15.22 73.3189 15.948 73.8949 16.476C74.4869 17.004 75.1989 17.268 76.0309 17.268C76.6549 17.268 77.1749 17.132 77.5909 16.86C78.0229 16.572 78.3429 16.204 78.5509 15.756H81.6709C81.4469 16.508 81.0709 17.196 80.5429 17.82C80.0309 18.428 79.3909 18.908 78.6229 19.26C77.8709 19.612 77.0149 19.788 76.0549 19.788ZM76.0789 9.804C75.3269 9.804 74.6629 10.02 74.0869 10.452C73.5109 10.868 73.1429 11.508 72.9829 12.372H78.9109C78.8629 11.588 78.5749 10.964 78.0469 10.5C77.5189 10.036 76.8629 9.804 76.0789 9.804ZM90.7347 19.788C89.6787 19.788 88.7507 19.62 87.9507 19.284C87.1507 18.932 86.5107 18.452 86.0307 17.844C85.5507 17.236 85.2627 16.532 85.1667 15.732H88.2627C88.3587 16.196 88.6147 16.596 89.0307 16.932C89.4627 17.252 90.0147 17.412 90.6867 17.412C91.3587 17.412 91.8467 17.276 92.1507 17.004C92.4707 16.732 92.6307 16.42 92.6307 16.068C92.6307 15.556 92.4067 15.212 91.9587 15.036C91.5107 14.844 90.8867 14.66 90.0867 14.484C89.5747 14.372 89.0547 14.236 88.5267 14.076C87.9987 13.916 87.5107 13.716 87.0627 13.476C86.6307 13.22 86.2787 12.9 86.0067 12.516C85.7347 12.116 85.5987 11.628 85.5987 11.052C85.5987 9.996 86.0147 9.108 86.8467 8.388C87.6947 7.668 88.8787 7.308 90.3987 7.308C91.8067 7.308 92.9267 7.636 93.7587 8.292C94.6067 8.948 95.1107 9.852 95.2707 11.004H92.3667C92.1907 10.124 91.5267 9.684 90.3747 9.684C89.7987 9.684 89.3507 9.796 89.0307 10.02C88.7267 10.244 88.5747 10.524 88.5747 10.86C88.5747 11.212 88.8067 11.492 89.2707 11.7C89.7347 11.908 90.3507 12.1 91.1187 12.276C91.9507 12.468 92.7107 12.684 93.3987 12.924C94.1027 13.148 94.6627 13.492 95.0787 13.956C95.4947 14.404 95.7027 15.052 95.7027 15.9C95.7187 16.636 95.5267 17.3 95.1267 17.892C94.7267 18.484 94.1507 18.948 93.3987 19.284C92.6467 19.62 91.7587 19.788 90.7347 19.788ZM99.6241 19.5V2.22H102.696V19.5H99.6241ZM108.691 5.748C108.131 5.748 107.667 5.58 107.299 5.244C106.947 4.908 106.771 4.484 106.771 3.972C106.771 3.46 106.947 3.044 107.299 2.724C107.667 2.388 108.131 2.22 108.691 2.22C109.251 2.22 109.707 2.388 110.059 2.724C110.427 3.044 110.611 3.46 110.611 3.972C110.611 4.484 110.427 4.908 110.059 5.244C109.707 5.58 109.251 5.748 108.691 5.748ZM107.155 19.5V7.596H110.227V19.5H107.155ZM120.465 19.788C119.249 19.788 118.177 19.524 117.249 18.996C116.321 18.468 115.585 17.732 115.041 16.788C114.513 15.844 114.249 14.764 114.249 13.548C114.249 12.332 114.513 11.252 115.041 10.308C115.585 9.364 116.321 8.628 117.249 8.1C118.177 7.572 119.249 7.308 120.465 7.308C121.985 7.308 123.265 7.708 124.305 8.508C125.345 9.292 126.009 10.38 126.297 11.772H123.057C122.897 11.196 122.577 10.748 122.097 10.428C121.633 10.092 121.081 9.924 120.441 9.924C119.593 9.924 118.873 10.244 118.281 10.884C117.689 11.524 117.393 12.412 117.393 13.548C117.393 14.684 117.689 15.572 118.281 16.212C118.873 16.852 119.593 17.172 120.441 17.172C121.081 17.172 121.633 17.012 122.097 16.692C122.577 16.372 122.897 15.916 123.057 15.324H126.297C126.009 16.668 125.345 17.748 124.305 18.564C123.265 19.38 121.985 19.788 120.465 19.788ZM136.008 19.788C134.808 19.788 133.744 19.532 132.816 19.02C131.888 18.508 131.16 17.788 130.632 16.86C130.104 15.932 129.84 14.86 129.84 13.644C129.84 12.412 130.096 11.316 130.608 10.356C131.136 9.396 131.856 8.652 132.768 8.124C133.696 7.58 134.784 7.308 136.032 7.308C137.2 7.308 138.232 7.564 139.128 8.076C140.024 8.588 140.72 9.292 141.216 10.188C141.728 11.068 141.984 12.052 141.984 13.14C141.984 13.316 141.976 13.5 141.96 13.692C141.96 13.884 141.952 14.084 141.936 14.292H132.888C132.952 15.22 133.272 15.948 133.848 16.476C134.44 17.004 135.152 17.268 135.984 17.268C136.608 17.268 137.128 17.132 137.544 16.86C137.976 16.572 138.296 16.204 138.504 15.756H141.624C141.4 16.508 141.024 17.196 140.496 17.82C139.984 18.428 139.344 18.908 138.576 19.26C137.824 19.612 136.968 19.788 136.008 19.788ZM136.032 9.804C135.28 9.804 134.616 10.02 134.04 10.452C133.464 10.868 133.096 11.508 132.936 12.372H138.864C138.816 11.588 138.528 10.964 138 10.5C137.472 10.036 136.816 9.804 136.032 9.804ZM150.688 19.788C149.632 19.788 148.704 19.62 147.904 19.284C147.104 18.932 146.464 18.452 145.984 17.844C145.504 17.236 145.216 16.532 145.12 15.732H148.216C148.312 16.196 148.568 16.596 148.984 16.932C149.416 17.252 149.968 17.412 150.64 17.412C151.312 17.412 151.8 17.276 152.104 17.004C152.424 16.732 152.584 16.42 152.584 16.068C152.584 15.556 152.36 15.212 151.912 15.036C151.464 14.844 150.84 14.66 150.04 14.484C149.528 14.372 149.008 14.236 148.48 14.076C147.952 13.916 147.464 13.716 147.016 13.476C146.584 13.22 146.232 12.9 145.96 12.516C145.688 12.116 145.552 11.628 145.552 11.052C145.552 9.996 145.968 9.108 146.8 8.388C147.648 7.668 148.832 7.308 150.352 7.308C151.76 7.308 152.88 7.636 153.712 8.292C154.56 8.948 155.064 9.852 155.224 11.004H152.32C152.144 10.124 151.48 9.684 150.328 9.684C149.752 9.684 149.304 9.796 148.984 10.02C148.68 10.244 148.528 10.524 148.528 10.86C148.528 11.212 148.76 11.492 149.224 11.7C149.688 11.908 150.304 12.1 151.072 12.276C151.904 12.468 152.664 12.684 153.352 12.924C154.056 13.148 154.616 13.492 155.032 13.956C155.448 14.404 155.656 15.052 155.656 15.9C155.672 16.636 155.48 17.3 155.08 17.892C154.68 18.484 154.104 18.948 153.352 19.284C152.6 19.62 151.712 19.788 150.688 19.788ZM166.424 23.652V21.108H167.336C168.504 21.108 169.088 20.54 169.088 19.404C169.088 18.78 169.008 18.156 168.848 17.532C168.688 16.892 168.608 16.124 168.608 15.228C168.608 14.38 168.816 13.66 169.232 13.068C169.648 12.46 170.32 12.06 171.248 11.868V11.82C170.32 11.628 169.648 11.236 169.232 10.644C168.816 10.036 168.608 9.308 168.608 8.46C168.608 7.564 168.688 6.804 168.848 6.18C169.008 5.54 169.088 4.908 169.088 4.284C169.088 3.148 168.504 2.58 167.336 2.58H166.424V0.0359988H167.912C169.144 0.0359988 170.136 0.371999 170.888 1.044C171.656 1.716 172.04 2.7 172.04 3.996C172.04 4.54 171.992 5.036 171.896 5.484C171.816 5.932 171.728 6.388 171.632 6.852C171.552 7.3 171.512 7.796 171.512 8.34C171.512 8.916 171.688 9.412 172.04 9.828C172.392 10.228 173.016 10.484 173.912 10.596V13.068C173.016 13.18 172.392 13.452 172.04 13.884C171.688 14.3 171.512 14.78 171.512 15.324C171.512 15.884 171.552 16.396 171.632 16.86C171.728 17.308 171.816 17.756 171.896 18.204C171.992 18.652 172.04 19.14 172.04 19.668C172.04 20.98 171.656 21.972 170.888 22.644C170.136 23.316 169.144 23.652 167.912 23.652H166.424Z" fill="white"/>
</svg>
