<svg width="24" height="24" viewBox="0 0 24 24" fill="none" xmlns="http://www.w3.org/2000/svg">
<rect width="24" height="24" rx="12" fill="white" fill-opacity="0.8"/>
<path d="M17.538 6.91641C16.5247 6.44402 15.4275 6.10115 14.2846 5.90305C14.2746 5.90273 14.2646 5.90461 14.2554 5.90856C14.2462 5.91251 14.2379 5.91843 14.2313 5.92591C14.0941 6.17734 13.9341 6.50497 13.8274 6.75641C12.6152 6.57354 11.3824 6.57354 10.1702 6.75641C10.0635 6.49735 9.90353 6.17734 9.75876 5.92591C9.75114 5.91067 9.72828 5.90305 9.70542 5.90305C8.56254 6.10115 7.47298 6.44402 6.452 6.91641C6.44438 6.91641 6.43676 6.92403 6.42914 6.93165C4.35671 10.0327 3.78526 13.0499 4.06717 16.0367C4.06717 16.0519 4.07479 16.0671 4.09003 16.0748C5.4615 17.0805 6.77963 17.69 8.08252 18.0939C8.10538 18.1015 8.12824 18.0939 8.13586 18.0786C8.44063 17.6596 8.71492 17.2176 8.95112 16.7529C8.96636 16.7224 8.95112 16.6919 8.92064 16.6843C8.48634 16.5167 8.0749 16.3186 7.67108 16.09C7.64061 16.0748 7.64061 16.029 7.66346 16.0062C7.74728 15.9452 7.83109 15.8767 7.9149 15.8157C7.93014 15.8005 7.953 15.8005 7.96823 15.8081C10.5893 17.0043 13.416 17.0043 16.0065 15.8081C16.0218 15.8005 16.0446 15.8005 16.0599 15.8157C16.1437 15.8843 16.2275 15.9452 16.3113 16.0138C16.3418 16.0367 16.3418 16.0824 16.3037 16.0976C15.9075 16.3338 15.4884 16.5243 15.0541 16.6919C15.0237 16.6995 15.016 16.7376 15.0237 16.7605C15.2675 17.2253 15.5418 17.6672 15.8389 18.0862C15.8618 18.0939 15.8846 18.1015 15.9075 18.0939C17.218 17.69 18.5361 17.0805 19.9076 16.0748C19.9228 16.0671 19.9305 16.0519 19.9305 16.0367C20.2657 12.5851 19.3743 9.59077 17.5685 6.93165C17.5609 6.92403 17.5533 6.91641 17.538 6.91641ZM9.34732 14.2157C8.56254 14.2157 7.90728 13.4918 7.90728 12.6004C7.90728 11.7089 8.5473 10.9851 9.34732 10.9851C10.155 10.9851 10.795 11.7165 10.7874 12.6004C10.7874 13.4918 10.1473 14.2157 9.34732 14.2157ZM14.6579 14.2157C13.8732 14.2157 13.2179 13.4918 13.2179 12.6004C13.2179 11.7089 13.8579 10.9851 14.6579 10.9851C15.4656 10.9851 16.1056 11.7165 16.098 12.6004C16.098 13.4918 15.4656 14.2157 14.6579 14.2157Z" fill="#0B0C23"/>
</svg>
