<svg width="21" height="20" viewBox="0 0 21 20" fill="none" xmlns="http://www.w3.org/2000/svg">
<path d="M9.40124 8.15L8.50124 7.275C8.30124 7.09167 8.06357 7.004 7.78824 7.012C7.51357 7.02067 7.28457 7.11667 7.10124 7.3C6.9179 7.48333 6.82624 7.71667 6.82624 8C6.82624 8.28333 6.9179 8.51667 7.10124 8.7L9.70124 11.3C9.90124 11.5 10.1346 11.6 10.4012 11.6C10.6679 11.6 10.9012 11.5 11.1012 11.3L13.7262 8.675C13.9096 8.49167 13.9972 8.26233 13.9892 7.987C13.9806 7.71233 13.8846 7.48333 13.7012 7.3C13.5179 7.11667 13.2889 7.025 13.0142 7.025C12.7389 7.025 12.5012 7.11667 12.3012 7.3L11.4012 8.15V4.975C11.4012 4.69167 11.3056 4.45833 11.1142 4.275C10.9222 4.09167 10.6846 4 10.4012 4C10.1179 4 9.88057 4.09567 9.68924 4.287C9.49724 4.479 9.40124 4.71667 9.40124 5V8.15ZM6.40124 15H14.4262C14.7096 15 14.9429 14.904 15.1262 14.712C15.3096 14.5207 15.4012 14.2833 15.4012 14C15.4012 13.7167 15.3052 13.479 15.1132 13.287C14.9219 13.0957 14.6846 13 14.4012 13H6.37624C6.0929 13 5.85957 13.0957 5.67624 13.287C5.4929 13.479 5.40124 13.7167 5.40124 14C5.40124 14.2833 5.4969 14.5207 5.68824 14.712C5.88024 14.904 6.1179 15 6.40124 15ZM10.4012 20C9.0179 20 7.7179 19.7373 6.50124 19.212C5.28457 18.6873 4.22624 17.975 3.32624 17.075C2.42624 16.175 1.7139 15.1167 1.18924 13.9C0.663904 12.6833 0.401237 11.3833 0.401237 10C0.401237 8.61667 0.663904 7.31667 1.18924 6.1C1.7139 4.88333 2.42624 3.825 3.32624 2.925C4.22624 2.025 5.28457 1.31233 6.50124 0.787C7.7179 0.262333 9.0179 0 10.4012 0C11.7846 0 13.0846 0.262333 14.3012 0.787C15.5179 1.31233 16.5762 2.025 17.4762 2.925C18.3762 3.825 19.0886 4.88333 19.6132 6.1C20.1386 7.31667 20.4012 8.61667 20.4012 10C20.4012 11.3833 20.1386 12.6833 19.6132 13.9C19.0886 15.1167 18.3762 16.175 17.4762 17.075C16.5762 17.975 15.5179 18.6873 14.3012 19.212C13.0846 19.7373 11.7846 20 10.4012 20ZM10.4012 18C12.6179 18 14.5056 17.221 16.0642 15.663C17.6222 14.1043 18.4012 12.2167 18.4012 10C18.4012 7.78333 17.6222 5.89567 16.0642 4.337C14.5056 2.779 12.6179 2 10.4012 2C8.18457 2 6.29724 2.779 4.73924 4.337C3.18057 5.89567 2.40124 7.78333 2.40124 10C2.40124 12.2167 3.18057 14.1043 4.73924 15.663C6.29724 17.221 8.18457 18 10.4012 18Z" fill="white"/>
</svg>
