<svg width="16" height="23" viewBox="0 0 16 23" fill="none" xmlns="http://www.w3.org/2000/svg">
<g clip-path="url(#clip0_69_21)">
<path d="M1 4.5C1 3.57174 1.36875 2.6815 2.02513 2.02513C2.6815 1.36875 3.57174 1 4.5 1H8V8H4.5C3.57174 8 2.6815 7.63125 2.02513 6.97487C1.36875 6.3185 1 5.42826 1 4.5Z" stroke="white" stroke-width="2" stroke-linecap="round" stroke-linejoin="round"/>
<path d="M8 1H11.5C11.9596 1 12.4148 1.09053 12.8394 1.26642C13.264 1.44231 13.6499 1.70012 13.9749 2.02513C14.2999 2.35013 14.5577 2.73597 14.7336 3.16061C14.9095 3.58525 15 4.04037 15 4.5C15 4.95963 14.9095 5.41475 14.7336 5.83939C14.5577 6.26403 14.2999 6.64987 13.9749 6.97487C13.6499 7.29988 13.264 7.55769 12.8394 7.73358C12.4148 7.90947 11.9596 8 11.5 8H8V1Z" stroke="white" stroke-width="2" stroke-linecap="round" stroke-linejoin="round"/>
<path d="M8 11.5C8 11.0404 8.09053 10.5852 8.26642 10.1606C8.44231 9.73597 8.70012 9.35013 9.02513 9.02513C9.35013 8.70012 9.73597 8.44231 10.1606 8.26642C10.5852 8.09053 11.0404 8 11.5 8C11.9596 8 12.4148 8.09053 12.8394 8.26642C13.264 8.44231 13.6499 8.70012 13.9749 9.02513C14.2999 9.35013 14.5577 9.73597 14.7336 10.1606C14.9095 10.5852 15 11.0404 15 11.5C15 11.9596 14.9095 12.4148 14.7336 12.8394C14.5577 13.264 14.2999 13.6499 13.9749 13.9749C13.6499 14.2999 13.264 14.5577 12.8394 14.7336C12.4148 14.9095 11.9596 15 11.5 15C11.0404 15 10.5852 14.9095 10.1606 14.7336C9.73597 14.5577 9.35013 14.2999 9.02513 13.9749C8.70012 13.6499 8.44231 13.264 8.26642 12.8394C8.09053 12.4148 8 11.9596 8 11.5V11.5Z" stroke="white" stroke-width="2" stroke-linecap="round" stroke-linejoin="round"/>
<path d="M1 18.5C1 17.5717 1.36875 16.6815 2.02513 16.0251C2.6815 15.3687 3.57174 15 4.5 15H8V18.5C8 19.4283 7.63125 20.3185 6.97487 20.9749C6.3185 21.6313 5.42826 22 4.5 22C3.57174 22 2.6815 21.6313 2.02513 20.9749C1.36875 20.3185 1 19.4283 1 18.5Z" stroke="white" stroke-width="2" stroke-linecap="round" stroke-linejoin="round"/>
<path d="M1 11.5C1 10.5717 1.36875 9.6815 2.02513 9.02513C2.6815 8.36875 3.57174 8 4.5 8H8V15H4.5C3.57174 15 2.6815 14.6313 2.02513 13.9749C1.36875 13.3185 1 12.4283 1 11.5Z" stroke="white" stroke-width="2" stroke-linecap="round" stroke-linejoin="round"/>
</g>
<defs>
<clipPath id="clip0_69_21">
<rect width="16" height="23" fill="white"/>
</clipPath>
</defs>
</svg>
