<svg width="24" height="24" viewBox="0 0 24 24" fill="none" xmlns="http://www.w3.org/2000/svg">
<g clip-path="url(#clip0_136_411)">
<path d="M12 0.47998C5.63758 0.47998 0.47998 5.63758 0.47998 12C0.47998 18.3624 5.63758 23.52 12 23.52C18.3624 23.52 23.52 18.3624 23.52 12C23.52 5.63758 18.3624 0.47998 12 0.47998ZM16.686 9.91678C16.6908 10.0152 16.692 10.1136 16.692 10.2096C16.692 13.2096 14.4108 16.6668 10.2372 16.6668C9.00393 16.6688 7.79634 16.3146 6.75958 15.6468C6.93598 15.6684 7.11718 15.6768 7.30078 15.6768C8.36398 15.6768 9.34198 15.3156 10.1184 14.706C9.64524 14.6967 9.18679 14.54 8.80691 14.2578C8.42704 13.9756 8.14468 13.5819 7.99918 13.1316C8.33897 13.1962 8.689 13.1827 9.02278 13.092C8.50924 12.9881 8.04742 12.7099 7.71563 12.3044C7.38384 11.8989 7.20251 11.3911 7.20238 10.8672V10.8396C7.50838 11.0088 7.85878 11.112 8.23078 11.124C7.74934 10.8035 7.40852 10.3112 7.27803 9.74774C7.14755 9.18429 7.23724 8.59228 7.52878 8.09278C8.09873 8.79358 8.80949 9.36688 9.61506 9.77555C10.4206 10.1842 11.303 10.4192 12.2052 10.4652C12.0905 9.97835 12.1399 9.46727 12.3456 9.01139C12.5513 8.5555 12.9019 8.18037 13.3429 7.9443C13.7838 7.70823 14.2904 7.62445 14.7839 7.70599C15.2773 7.78753 15.73 8.02981 16.0716 8.39518C16.5794 8.29471 17.0664 8.10845 17.5116 7.84438C17.3423 8.37014 16.988 8.81659 16.5144 9.10078C16.9642 9.0466 17.4034 8.92567 17.8176 8.74198C17.5134 9.19785 17.1301 9.59571 16.686 9.91678Z" fill="white" fill-opacity="0.8"/>
</g>
<defs>
<clipPath id="clip0_136_411">
<rect width="24" height="24" fill="white"/>
</clipPath>
</defs>
</svg>
