<svg width="24" height="24" viewBox="0 0 24 24" fill="none" xmlns="http://www.w3.org/2000/svg">
<rect width="24" height="24" rx="12" fill="white" fill-opacity="0.8"/>
<path d="M14.923 8.50098H9.077C7.93 8.50098 7 9.42098 7 10.555V13.445C7 14.58 7.93 15.499 9.077 15.499H14.923C16.07 15.499 17 14.579 17 13.445V10.555C17 9.41998 16.07 8.50098 14.923 8.50098ZM13.519 12.141L10.784 13.431C10.7673 13.4389 10.7488 13.4424 10.7303 13.4413C10.7119 13.4402 10.694 13.4344 10.6783 13.4246C10.6627 13.4147 10.6498 13.401 10.6408 13.3849C10.6318 13.3687 10.6271 13.3505 10.627 13.332V10.672C10.6272 10.6532 10.6321 10.6348 10.6414 10.6186C10.6507 10.6023 10.6639 10.5886 10.68 10.5789C10.696 10.5692 10.7142 10.5637 10.733 10.563C10.7517 10.5623 10.7703 10.5665 10.787 10.575L13.521 11.945C13.539 11.9544 13.554 11.9686 13.5644 11.986C13.5748 12.0034 13.5803 12.0233 13.58 12.0436C13.5798 12.0639 13.574 12.0837 13.5633 12.1009C13.5525 12.1181 13.5372 12.132 13.519 12.141Z" fill="#0B0C23"/>
</svg>
